<svg width="70" height="18" viewBox="0 0 70 18" fill="none" xmlns="http://www.w3.org/2000/svg">
<path d="M22.1008 11.8736C22.0382 11.8736 21.9849 11.8517 21.9411 11.8078C21.8972 11.764 21.8753 11.7107 21.8753 11.6481V5.52155C21.8753 5.45265 21.8972 5.3994 21.9411 5.36181C21.9849 5.31796 22.0382 5.29604 22.1008 5.29604H22.9841C23.053 5.29604 23.1062 5.31796 23.1438 5.36181C23.1877 5.3994 23.2096 5.45265 23.2096 5.52155V10.746H26.1883C26.2572 10.746 26.3136 10.7679 26.3574 10.8118C26.4013 10.8556 26.4232 10.9089 26.4232 10.9715V11.6481C26.4232 11.7107 26.4013 11.764 26.3574 11.8078C26.3136 11.8517 26.2572 11.8736 26.1883 11.8736H22.1008ZM28.6413 11.9676C28.3218 11.9676 28.0274 11.9049 27.758 11.7796C27.4949 11.6481 27.2851 11.4727 27.1284 11.2534C26.9781 11.0342 26.9029 10.793 26.9029 10.5299C26.9029 10.1039 27.0752 9.75938 27.4197 9.49628C27.7643 9.23318 28.2372 9.05464 28.8386 8.96068L30.1259 8.77275V8.57542C30.1259 8.30605 30.057 8.10246 29.9192 7.96465C29.7814 7.82683 29.5621 7.75792 29.2615 7.75792C29.0547 7.75792 28.8887 7.79551 28.7634 7.87068C28.6382 7.94585 28.5348 8.02416 28.4534 8.10559C28.3782 8.18077 28.3281 8.23088 28.303 8.25594C28.278 8.33111 28.231 8.3687 28.1621 8.3687H27.4291C27.3728 8.3687 27.3226 8.3499 27.2788 8.31232C27.2412 8.27473 27.2224 8.22462 27.2224 8.16197C27.2287 8.00536 27.3038 7.82996 27.4479 7.63577C27.5983 7.43531 27.8269 7.26304 28.1339 7.11896C28.4408 6.96862 28.8198 6.89344 29.2709 6.89344C30.01 6.89344 30.5488 7.05945 30.8871 7.39146C31.2253 7.72347 31.3945 8.15884 31.3945 8.69757V11.6481C31.3945 11.7107 31.3725 11.764 31.3287 11.8078C31.2911 11.8517 31.2379 11.8736 31.1689 11.8736H30.389C30.3264 11.8736 30.2731 11.8517 30.2293 11.8078C30.1854 11.764 30.1635 11.7107 30.1635 11.6481V11.2816C30.0257 11.4821 29.8315 11.6481 29.5809 11.7796C29.3304 11.9049 29.0171 11.9676 28.6413 11.9676ZM28.9608 11.0655C29.3053 11.0655 29.5872 10.9527 29.8065 10.7272C30.0257 10.5017 30.1353 10.176 30.1353 9.74998V9.56205L29.1957 9.7124C28.4753 9.82516 28.1151 10.0663 28.1151 10.4359C28.1151 10.6364 28.1965 10.793 28.3594 10.9058C28.5285 11.0122 28.729 11.0655 28.9608 11.0655ZM34.4602 11.9676C33.9841 11.9676 33.5863 11.8955 33.2669 11.7514C32.9474 11.6074 32.7093 11.4414 32.5527 11.2534C32.4024 11.0592 32.3272 10.8932 32.3272 10.7554C32.3272 10.6928 32.346 10.6427 32.3836 10.6051C32.4274 10.5675 32.4776 10.5487 32.5339 10.5487H33.3045C33.3546 10.5487 33.3984 10.5737 33.436 10.6239C33.4673 10.6489 33.5362 10.7084 33.6427 10.8024C33.7555 10.8964 33.8808 10.9715 34.0186 11.0279C34.1627 11.078 34.3193 11.1031 34.4884 11.1031C34.739 11.1031 34.9426 11.0561 35.0992 10.9621C35.2558 10.8619 35.3341 10.721 35.3341 10.5393C35.3341 10.414 35.2965 10.3138 35.2213 10.2386C35.1524 10.1572 35.024 10.0851 34.8361 10.0225C34.6544 9.95358 34.3788 9.8784 34.0092 9.79697C33.4767 9.68421 33.0821 9.51194 32.8252 9.28016C32.5747 9.04838 32.4494 8.74143 32.4494 8.3593C32.4494 8.10873 32.5245 7.87381 32.6749 7.65456C32.8252 7.42905 33.0476 7.24738 33.342 7.10956C33.6427 6.96548 33.9998 6.89344 34.4132 6.89344C34.8392 6.89344 35.2057 6.96235 35.5126 7.10017C35.8196 7.23172 36.0514 7.39146 36.208 7.57939C36.3708 7.76732 36.4523 7.93332 36.4523 8.0774C36.4523 8.13378 36.4304 8.1839 36.3865 8.22775C36.3489 8.26533 36.3019 8.28413 36.2456 8.28413H35.5408C35.4719 8.28413 35.4187 8.25907 35.3811 8.20896C35.3372 8.17763 35.2652 8.12126 35.165 8.03982C35.071 7.95212 34.9645 7.88321 34.8455 7.8331C34.7265 7.78298 34.5824 7.75792 34.4132 7.75792C34.1815 7.75792 34.0029 7.80804 33.8776 7.90827C33.7524 8.0085 33.6897 8.14005 33.6897 8.30292C33.6897 8.41568 33.7179 8.50964 33.7743 8.58482C33.8369 8.65999 33.9591 8.73203 34.1407 8.80094C34.3224 8.86358 34.5949 8.92936 34.9582 8.99826C36.0858 9.21751 36.6496 9.70927 36.6496 10.4735C36.6496 10.9183 36.4554 11.2785 36.067 11.5541C35.6849 11.8297 35.1493 11.9676 34.4602 11.9676ZM37.8449 11.8736C37.7822 11.8736 37.729 11.8517 37.6851 11.8078C37.6413 11.764 37.6194 11.7107 37.6194 11.6481V5.42759C37.6194 5.35868 37.6413 5.30543 37.6851 5.26785C37.729 5.224 37.7822 5.20207 37.8449 5.20207H38.6342C38.7031 5.20207 38.7563 5.224 38.7939 5.26785C38.8378 5.30543 38.8597 5.35868 38.8597 5.42759V11.6481C38.8597 11.7107 38.8378 11.764 38.7939 11.8078C38.7563 11.8517 38.7031 11.8736 38.6342 11.8736H37.8449ZM42.2201 11.9676C41.5185 11.9676 40.961 11.7671 40.5475 11.3662C40.1404 10.9653 39.9242 10.3952 39.8992 9.65602L39.8898 9.42111C39.8898 8.63806 40.0934 8.02103 40.5006 7.56999C40.914 7.11896 41.4841 6.89344 42.2107 6.89344C42.9562 6.89344 43.5294 7.11896 43.9303 7.56999C44.3375 8.02103 44.5411 8.6224 44.5411 9.37412V9.57145C44.5411 9.63409 44.5191 9.68734 44.4753 9.73119C44.4314 9.77504 44.3751 9.79697 44.3062 9.79697H41.1865V9.87214C41.199 10.2229 41.293 10.5142 41.4684 10.746C41.6501 10.9715 41.8975 11.0843 42.2107 11.0843C42.5678 11.0843 42.8591 10.9402 43.0846 10.652C43.141 10.5831 43.1848 10.5424 43.2162 10.5299C43.2475 10.5111 43.3007 10.5017 43.3759 10.5017H44.2028C44.2592 10.5017 44.3062 10.5174 44.3437 10.5487C44.3876 10.58 44.4095 10.6239 44.4095 10.6802C44.4095 10.8306 44.3187 11.0091 44.137 11.2158C43.9616 11.4163 43.7079 11.5917 43.3759 11.742C43.0439 11.8924 42.6586 11.9676 42.2201 11.9676ZM43.2443 8.99826V8.97947C43.2443 8.60987 43.1504 8.31545 42.9625 8.0962C42.7808 7.87068 42.5302 7.75792 42.2107 7.75792C41.8912 7.75792 41.6407 7.87068 41.459 8.0962C41.2773 8.31545 41.1865 8.60987 41.1865 8.97947V8.99826H43.2443ZM47.3988 11.9676C46.9227 11.9676 46.5249 11.8955 46.2054 11.7514C45.8859 11.6074 45.6479 11.4414 45.4913 11.2534C45.3409 11.0592 45.2658 10.8932 45.2658 10.7554C45.2658 10.6928 45.2846 10.6427 45.3222 10.6051C45.366 10.5675 45.4161 10.5487 45.4725 10.5487H46.243C46.2931 10.5487 46.337 10.5737 46.3746 10.6239C46.4059 10.6489 46.4748 10.7084 46.5813 10.8024C46.694 10.8964 46.8193 10.9715 46.9571 11.0279C47.1012 11.078 47.2578 11.1031 47.427 11.1031C47.6775 11.1031 47.8811 11.0561 48.0377 10.9621C48.1944 10.8619 48.2727 10.721 48.2727 10.5393C48.2727 10.414 48.2351 10.3138 48.1599 10.2386C48.091 10.1572 47.9626 10.0851 47.7746 10.0225C47.593 9.95358 47.3173 9.8784 46.9477 9.79697C46.4153 9.68421 46.0206 9.51194 45.7638 9.28016C45.5132 9.04838 45.3879 8.74143 45.3879 8.3593C45.3879 8.10873 45.4631 7.87381 45.6134 7.65456C45.7638 7.42905 45.9862 7.24738 46.2806 7.10956C46.5813 6.96548 46.9384 6.89344 47.3518 6.89344C47.7778 6.89344 48.1442 6.96235 48.4512 7.10017C48.7581 7.23172 48.9899 7.39146 49.1465 7.57939C49.3094 7.76732 49.3908 7.93332 49.3908 8.0774C49.3908 8.13378 49.3689 8.1839 49.3251 8.22775C49.2875 8.26533 49.2405 8.28413 49.1841 8.28413H48.4794C48.4105 8.28413 48.3572 8.25907 48.3196 8.20896C48.2758 8.17763 48.2037 8.12126 48.1035 8.03982C48.0096 7.95212 47.9031 7.88321 47.784 7.8331C47.665 7.78298 47.5209 7.75792 47.3518 7.75792C47.12 7.75792 46.9415 7.80804 46.8162 7.90827C46.6909 8.0085 46.6283 8.14005 46.6283 8.30292C46.6283 8.41568 46.6565 8.50964 46.7128 8.58482C46.7755 8.65999 46.8976 8.73203 47.0793 8.80094C47.261 8.86358 47.5335 8.92936 47.8968 8.99826C49.0244 9.21751 49.5882 9.70927 49.5882 10.4735C49.5882 10.9183 49.394 11.2785 49.0056 11.5541C48.6235 11.8297 48.0879 11.9676 47.3988 11.9676ZM52.4466 11.8736C52.3401 11.8736 52.2524 11.8485 52.1835 11.7984C52.1209 11.742 52.077 11.6731 52.052 11.5917L50.1539 5.57793L50.1351 5.49336C50.1351 5.44325 50.1539 5.3994 50.1915 5.36181C50.2353 5.31796 50.2854 5.29604 50.3418 5.29604H51.5727C51.6667 5.29604 51.7419 5.32423 51.7983 5.38061C51.8609 5.43072 51.9016 5.4871 51.9204 5.54974L53.1983 9.79697L54.4857 5.54974C54.5045 5.48083 54.542 5.42132 54.5984 5.37121C54.6611 5.32109 54.7394 5.29604 54.8333 5.29604H56.0643C56.1207 5.29604 56.1676 5.31796 56.2052 5.36181C56.2428 5.3994 56.2616 5.44325 56.2616 5.49336C56.2616 5.52469 56.2585 5.55287 56.2522 5.57793L54.3447 11.5917C54.3259 11.6731 54.2821 11.742 54.2132 11.7984C54.1505 11.8485 54.0659 11.8736 53.9595 11.8736H52.4466ZM57.3541 11.8736C57.2914 11.8736 57.2351 11.8517 57.185 11.8078C57.1411 11.7577 57.1192 11.7013 57.1192 11.6387V5.54035C57.1192 5.47144 57.1411 5.41506 57.185 5.37121C57.2288 5.32109 57.2852 5.29604 57.3541 5.29604H60.0133C60.8277 5.29604 61.4666 5.48083 61.9302 5.85043C62.3938 6.22003 62.6255 6.76189 62.6255 7.47603C62.6255 8.19016 62.3938 8.72576 61.9302 9.08283C61.4666 9.43363 60.8277 9.60904 60.0133 9.60904H58.9421V11.6387C58.9421 11.7013 58.9202 11.7577 58.8763 11.8078C58.8325 11.8517 58.7761 11.8736 58.7072 11.8736H57.3541ZM59.9663 8.26534C60.2232 8.26534 60.4236 8.19956 60.5677 8.06801C60.718 7.93019 60.7932 7.72973 60.7932 7.46663C60.7932 7.22232 60.7243 7.025 60.5865 6.87465C60.4549 6.72431 60.2482 6.64913 59.9663 6.64913H58.9139V8.26534H59.9663ZM63.7316 11.8736C63.669 11.8736 63.6126 11.8517 63.5625 11.8078C63.5186 11.7577 63.4967 11.7013 63.4967 11.6387V5.54035C63.4967 5.47144 63.5186 5.41506 63.5625 5.37121C63.6063 5.32109 63.6627 5.29604 63.7316 5.29604H64.7934C64.9375 5.29604 65.044 5.35555 65.1129 5.47457L67.3305 8.97947V5.54035C67.3305 5.47144 67.3524 5.41506 67.3962 5.37121C67.4401 5.32109 67.4965 5.29604 67.5654 5.29604H68.7587C68.8276 5.29604 68.884 5.32109 68.9279 5.37121C68.9717 5.41506 68.9937 5.47144 68.9937 5.54035V11.6293C68.9937 11.6982 68.9717 11.7577 68.9279 11.8078C68.884 11.8517 68.8276 11.8736 68.7587 11.8736H67.6969C67.5529 11.8736 67.4464 11.8141 67.3775 11.6951L65.1693 8.33111V11.6387C65.1693 11.7076 65.1442 11.764 65.0941 11.8078C65.0503 11.8517 64.9939 11.8736 64.925 11.8736H63.7316Z" fill="#0B132A"/>
<path d="M14.6338 6.41206L14.6236 6.40183C14.6227 6.40126 14.6221 6.40049 14.6217 6.3996L8.22222 0L1.82284 6.39944C1.82211 6.40018 1.82095 6.40166 1.82095 6.40166L1.81039 6.41189C0.831839 7.39594 0.210287 8.67885 0.0445478 10.0567C-0.121192 11.4346 0.178392 12.8283 0.895671 14.0164C1.61295 15.2044 2.70677 16.1187 4.00324 16.6136C5.29971 17.1086 6.72443 17.156 8.05091 16.7482C8.16254 16.7141 8.28184 16.7141 8.39348 16.7482C9.71986 17.1558 11.1445 17.1084 12.4409 16.6134C13.7373 16.1183 14.831 15.2042 15.5482 14.0162C16.2654 12.8282 16.5651 11.4346 16.3994 10.0568C16.2337 8.67902 15.6122 7.39611 14.6338 6.41206ZM4.09838 10.6321C4.06723 10.6632 4.04252 10.7002 4.02567 10.7409C4.00882 10.7816 4.00014 10.8252 4.00015 10.8692C4.01154 11.9987 4.33074 13.1036 4.9234 14.0652C4.93686 14.087 4.94308 14.1126 4.94117 14.1381C4.93926 14.1636 4.92932 14.1879 4.91276 14.2075C4.89621 14.2271 4.87389 14.2409 4.84901 14.247C4.82412 14.2531 4.79793 14.2512 4.7742 14.2415C4.32866 14.0541 3.9239 13.7817 3.58257 13.4395C2.88307 12.7399 2.48982 11.7912 2.48918 10.8019C2.48855 9.81254 2.88058 8.86337 3.57919 8.16288L8.22222 3.52028L12.865 8.16288C13.5638 8.86328 13.9559 9.81246 13.9553 10.8019C13.9547 11.7912 13.5614 12.7399 12.8618 13.4395C12.5205 13.7817 12.1157 14.0541 11.6703 14.2415C11.6465 14.2512 11.6203 14.2531 11.5954 14.247C11.5705 14.2409 11.5482 14.227 11.5316 14.2075C11.5151 14.1879 11.5051 14.1636 11.5032 14.138C11.5013 14.1125 11.5075 14.0869 11.521 14.0651C12.1137 13.1036 12.4331 11.9987 12.4447 10.8692C12.4447 10.8252 12.4359 10.7816 12.419 10.7408C12.402 10.7001 12.3773 10.6631 12.346 10.632L10.15 8.30263C10.1281 8.28437 10.1005 8.27437 10.072 8.27437C10.0436 8.27437 10.016 8.28437 9.99419 8.30263C9.9723 8.32081 9.95759 8.34618 9.95247 8.37419C9.94734 8.40221 9.95222 8.43104 9.96627 8.45583C10.8192 9.99929 10.0857 12.2163 8.86265 13.4395L8.85621 13.446C8.68739 13.613 8.4595 13.7066 8.22206 13.7065C7.98459 13.7064 7.75675 13.6126 7.58806 13.4456L7.58212 13.4395C6.35857 12.2163 5.62553 9.99954 6.47858 8.45616C6.4926 8.43137 6.49749 8.40253 6.49239 8.37452C6.48729 8.34651 6.47252 8.32114 6.45067 8.30297C6.42881 8.2847 6.40125 8.27471 6.37279 8.27471C6.34432 8.27471 6.31676 8.2847 6.2949 8.30297L4.09838 10.6321Z" fill="#F53838"/>
</svg>
